<svg xmlns="http://www.w3.org/2000/svg" width="20.145" height="23.262" viewBox="0 0 20.145 23.262">
  <g id="noun_Tag_55626" transform="translate(-7.43 0.185)">
    <g id="Groupe_8" data-name="Groupe 8">
      <path id="Tracé_42" data-name="Tracé 42" d="M26.381,2.934H23.586a1.639,1.639,0,0,1-.133-.472A2.93,2.93,0,0,1,24.217.53a.426.426,0,0,0-.628-.577,3.747,3.747,0,0,0-.982,2.609,2.36,2.36,0,0,0,.077.372H19.391a3.334,3.334,0,0,0-2.042.841l-9.566,9.5a1.188,1.188,0,0,0,0,1.685l7.772,7.772a1.193,1.193,0,0,0,1.689,0l9.491-9.489a3.318,3.318,0,0,0,.844-2.038V4.128A1.193,1.193,0,0,0,26.381,2.934Zm.341,8.265a2.5,2.5,0,0,1-.594,1.435l-9.492,9.491a.341.341,0,0,1-.482,0L8.382,14.353a.335.335,0,0,1,0-.477l9.565-9.5a2.525,2.525,0,0,1,1.442-.595h3.7c.08.124.163.243.244.357a2.389,2.389,0,0,1,.529,1.084A2.05,2.05,0,1,0,24.7,5.7c.007-.051.015-.1.019-.156a2.6,2.6,0,0,0-.6-1.752h2.26a.341.341,0,0,1,.341.341V11.2ZM24.5,7.2A1.2,1.2,0,1,1,23.7,6.069a2.611,2.611,0,0,1-.624.794.426.426,0,1,0,.527.671,3.461,3.461,0,0,0,.763-.9A1.183,1.183,0,0,1,24.5,7.2Z" fill="#4c0832"/>
      <path id="Tracé_43" data-name="Tracé 43" d="M32.86,57.045a.426.426,0,0,0-.6.6l3.482,3.482a.426.426,0,1,0,.6-.6Z" transform="translate(-18.956 -43.821)" fill="#4c0832"/>
      <path id="Tracé_44" data-name="Tracé 44" d="M40.927,48.979a.426.426,0,1,0-.6.6l3.481,3.481a.426.426,0,0,0,.6-.6Z" transform="translate(-25.146 -37.631)" fill="#4c0832"/>
    </g>
  </g>
</svg>
