<svg xmlns="http://www.w3.org/2000/svg" xmlns:xlink="http://www.w3.org/1999/xlink" width="500" zoomAndPan="magnify" viewBox="0 0 375 374.999991" height="500" preserveAspectRatio="xMidYMid meet" version="1.0">
    <defs><g/><clipPath id="f54b2f0c41"><path d="M 145 68.277344 L 230 68.277344 L 230 79 L 145 79 Z M 145 68.277344 " clip-rule="nonzero"/></clipPath>
        <clipPath id="8c9f5ac579"><path d="M 214 160 L 277.417969 160 L 277.417969 173 L 214 173 Z M 214 160 " clip-rule="nonzero"/></clipPath>
        <clipPath id="6f72758eb6"><path d="M 210 144 L 277.417969 144 L 277.417969 157 L 210 157 Z M 210 144 " clip-rule="nonzero"/></clipPath>
        <clipPath id="99d6fdd9b7"><path d="M 216 222 L 251 222 L 251 233.277344 L 216 233.277344 Z M 216 222 " clip-rule="nonzero"/></clipPath>
        <clipPath id="010ab354ea"><path d="M 97.417969 160 L 161 160 L 161 173 L 97.417969 173 Z M 97.417969 160 " clip-rule="nonzero"/></clipPath>
        <clipPath id="9cfa268ee7"><path d="M 97.417969 144 L 165 144 L 165 157 L 97.417969 157 Z M 97.417969 144 " clip-rule="nonzero"/></clipPath>
        <clipPath id="e173f023af"><path d="M 123 222 L 159 222 L 159 233.277344 L 123 233.277344 Z M 123 222 " clip-rule="nonzero"/></clipPath>
    </defs>
    <g fill="#D9D9D9" fill-opacity="1">
        <g transform="translate(23.064492, 295.83275)">
            <g><path d="M 29.578125 -11.21875 C 29.578125 -7.507812 28.234375 -4.613281 25.546875 -2.53125 C 22.859375 -0.457031 19.207031 0.578125 14.59375 0.578125 C 9.59375 0.578125 5.75 -0.0664062 3.0625 -1.359375 L 3.0625 -6.078125 C 4.789062 -5.347656 6.671875 -4.769531 8.703125 -4.34375 C 10.742188 -3.925781 12.765625 -3.71875 14.765625 -3.71875 C 18.023438 -3.71875 20.484375 -4.335938 22.140625 -5.578125 C 23.796875 -6.816406 24.625 -8.539062 24.625 -10.75 C 24.625 -12.21875 24.328125 -13.414062 23.734375 -14.34375 C 23.148438 -15.269531 22.171875 -16.128906 20.796875 -16.921875 C 19.421875 -17.710938 17.332031 -18.609375 14.53125 -19.609375 C 10.613281 -21.003906 7.8125 -22.660156 6.125 -24.578125 C 4.445312 -26.503906 3.609375 -29.019531 3.609375 -32.125 C 3.609375 -35.363281 4.828125 -37.941406 7.265625 -39.859375 C 9.703125 -41.785156 12.929688 -42.75 16.953125 -42.75 C 21.140625 -42.75 24.992188 -41.984375 28.515625 -40.453125 L 26.984375 -36.1875 C 23.503906 -37.644531 20.125 -38.375 16.84375 -38.375 C 14.25 -38.375 12.21875 -37.816406 10.75 -36.703125 C 9.289062 -35.585938 8.5625 -34.039062 8.5625 -32.0625 C 8.5625 -30.601562 8.828125 -29.40625 9.359375 -28.46875 C 9.898438 -27.539062 10.8125 -26.6875 12.09375 -25.90625 C 13.375 -25.125 15.332031 -24.265625 17.96875 -23.328125 C 22.382812 -21.742188 25.421875 -20.050781 27.078125 -18.25 C 28.742188 -16.445312 29.578125 -14.101562 29.578125 -11.21875 Z M 29.578125 -11.21875 "/></g>
        </g>
    </g>
    <g fill="#D9D9D9" fill-opacity="1">
        <g transform="translate(55.466787, 295.83275)">
            <g><path d="M 18.421875 0.578125 C 13.753906 0.578125 10.066406 -0.84375 7.359375 -3.6875 C 4.660156 -6.53125 3.3125 -10.484375 3.3125 -15.546875 C 3.3125 -20.640625 4.566406 -24.679688 7.078125 -27.671875 C 9.585938 -30.671875 12.957031 -32.171875 17.1875 -32.171875 C 21.144531 -32.171875 24.273438 -30.867188 26.578125 -28.265625 C 28.890625 -25.660156 30.046875 -22.226562 30.046875 -17.96875 L 30.046875 -14.9375 L 8.28125 -14.9375 C 8.375 -11.226562 9.304688 -8.410156 11.078125 -6.484375 C 12.859375 -4.566406 15.363281 -3.609375 18.59375 -3.609375 C 22 -3.609375 25.363281 -4.316406 28.6875 -5.734375 L 28.6875 -1.46875 C 27 -0.738281 25.398438 -0.21875 23.890625 0.09375 C 22.378906 0.414062 20.554688 0.578125 18.421875 0.578125 Z M 17.125 -28.171875 C 14.582031 -28.171875 12.554688 -27.34375 11.046875 -25.6875 C 9.546875 -24.03125 8.660156 -21.742188 8.390625 -18.828125 L 24.90625 -18.828125 C 24.90625 -21.847656 24.234375 -24.160156 22.890625 -25.765625 C 21.546875 -27.367188 19.625 -28.171875 17.125 -28.171875 Z M 17.125 -28.171875 "/></g>
        </g>
    </g>
    <g fill="#D9D9D9" fill-opacity="1">
        <g transform="translate(88.589775, 295.83275)">
            <g><path d="M 17.703125 0.578125 C 13.128906 0.578125 9.585938 -0.828125 7.078125 -3.640625 C 4.566406 -6.460938 3.3125 -10.445312 3.3125 -15.59375 C 3.3125 -20.882812 4.582031 -24.96875 7.125 -27.84375 C 9.675781 -30.726562 13.304688 -32.171875 18.015625 -32.171875 C 19.535156 -32.171875 21.054688 -32.007812 22.578125 -31.6875 C 24.097656 -31.363281 25.289062 -30.976562 26.15625 -30.53125 L 24.6875 -26.46875 C 23.625 -26.894531 22.46875 -27.242188 21.21875 -27.515625 C 19.96875 -27.796875 18.863281 -27.9375 17.90625 -27.9375 C 11.488281 -27.9375 8.28125 -23.84375 8.28125 -15.65625 C 8.28125 -11.769531 9.0625 -8.789062 10.625 -6.71875 C 12.1875 -4.644531 14.507812 -3.609375 17.59375 -3.609375 C 20.21875 -3.609375 22.914062 -4.175781 25.6875 -5.3125 L 25.6875 -1.0625 C 23.570312 0.03125 20.910156 0.578125 17.703125 0.578125 Z M 17.703125 0.578125 "/></g>
        </g>
    </g>
    <g fill="#D9D9D9" fill-opacity="1">
        <g transform="translate(116.696748, 295.83275)">
            <g><path d="M 19.484375 -32.171875 C 20.890625 -32.171875 22.148438 -32.054688 23.265625 -31.828125 L 22.609375 -27.390625 C 21.296875 -27.679688 20.140625 -27.828125 19.140625 -27.828125 C 16.585938 -27.828125 14.398438 -26.785156 12.578125 -24.703125 C 10.765625 -22.628906 9.859375 -20.046875 9.859375 -16.953125 L 9.859375 0 L 5.078125 0 L 5.078125 -31.59375 L 9.03125 -31.59375 L 9.578125 -25.75 L 9.796875 -25.75 C 10.972656 -27.800781 12.382812 -29.382812 14.03125 -30.5 C 15.6875 -31.613281 17.503906 -32.171875 19.484375 -32.171875 Z M 19.484375 -32.171875 "/></g>
        </g>
    </g>
    <g fill="#D9D9D9" fill-opacity="1">
        <g transform="translate(140.796677, 295.83275)">
            <g><path d="M 18.421875 0.578125 C 13.753906 0.578125 10.066406 -0.84375 7.359375 -3.6875 C 4.660156 -6.53125 3.3125 -10.484375 3.3125 -15.546875 C 3.3125 -20.640625 4.566406 -24.679688 7.078125 -27.671875 C 9.585938 -30.671875 12.957031 -32.171875 17.1875 -32.171875 C 21.144531 -32.171875 24.273438 -30.867188 26.578125 -28.265625 C 28.890625 -25.660156 30.046875 -22.226562 30.046875 -17.96875 L 30.046875 -14.9375 L 8.28125 -14.9375 C 8.375 -11.226562 9.304688 -8.410156 11.078125 -6.484375 C 12.859375 -4.566406 15.363281 -3.609375 18.59375 -3.609375 C 22 -3.609375 25.363281 -4.316406 28.6875 -5.734375 L 28.6875 -1.46875 C 27 -0.738281 25.398438 -0.21875 23.890625 0.09375 C 22.378906 0.414062 20.554688 0.578125 18.421875 0.578125 Z M 17.125 -28.171875 C 14.582031 -28.171875 12.554688 -27.34375 11.046875 -25.6875 C 9.546875 -24.03125 8.660156 -21.742188 8.390625 -18.828125 L 24.90625 -18.828125 C 24.90625 -21.847656 24.234375 -24.160156 22.890625 -25.765625 C 21.546875 -27.367188 19.625 -28.171875 17.125 -28.171875 Z M 17.125 -28.171875 "/></g>
        </g>
    </g>
    <g fill="#D9D9D9" fill-opacity="1">
        <g transform="translate(173.919664, 295.83275)">
            <g><path d="M 15.28125 -3.375 C 16.125 -3.375 16.9375 -3.4375 17.71875 -3.5625 C 18.507812 -3.6875 19.140625 -3.816406 19.609375 -3.953125 L 19.609375 -0.28125 C 19.085938 -0.03125 18.320312 0.171875 17.3125 0.328125 C 16.300781 0.492188 15.394531 0.578125 14.59375 0.578125 C 8.476562 0.578125 5.421875 -2.640625 5.421875 -9.078125 L 5.421875 -27.875 L 0.890625 -27.875 L 0.890625 -30.1875 L 5.421875 -32.171875 L 7.4375 -38.921875 L 10.203125 -38.921875 L 10.203125 -31.59375 L 19.375 -31.59375 L 19.375 -27.875 L 10.203125 -27.875 L 10.203125 -9.28125 C 10.203125 -7.375 10.65625 -5.910156 11.5625 -4.890625 C 12.46875 -3.878906 13.707031 -3.375 15.28125 -3.375 Z M 15.28125 -3.375 "/></g>
        </g>
    </g>
    <g fill="#D9D9D9" fill-opacity="1">
        <g transform="translate(194.762066, 295.83275)">
            <g><path d="M 23.84375 -38.375 C 19.207031 -38.375 15.546875 -36.832031 12.859375 -33.75 C 10.179688 -30.664062 8.84375 -26.441406 8.84375 -21.078125 C 8.84375 -15.554688 10.132812 -11.289062 12.71875 -8.28125 C 15.3125 -5.28125 19 -3.78125 23.78125 -3.78125 C 26.726562 -3.78125 30.082031 -4.304688 33.84375 -5.359375 L 33.84375 -1.0625 C 30.925781 0.03125 27.320312 0.578125 23.03125 0.578125 C 16.820312 0.578125 12.03125 -1.300781 8.65625 -5.0625 C 5.289062 -8.832031 3.609375 -14.191406 3.609375 -21.140625 C 3.609375 -25.484375 4.414062 -29.285156 6.03125 -32.546875 C 7.65625 -35.816406 10 -38.332031 13.0625 -40.09375 C 16.132812 -41.863281 19.75 -42.75 23.90625 -42.75 C 28.320312 -42.75 32.179688 -41.941406 35.484375 -40.328125 L 33.421875 -36.125 C 30.222656 -37.625 27.03125 -38.375 23.84375 -38.375 Z M 23.84375 -38.375 "/></g>
        </g>
    </g>
    <g fill="#D9D9D9" fill-opacity="1">
        <g transform="translate(232.007409, 295.83275)">
            <g><path d="M 18.421875 0.578125 C 13.753906 0.578125 10.066406 -0.84375 7.359375 -3.6875 C 4.660156 -6.53125 3.3125 -10.484375 3.3125 -15.546875 C 3.3125 -20.640625 4.566406 -24.679688 7.078125 -27.671875 C 9.585938 -30.671875 12.957031 -32.171875 17.1875 -32.171875 C 21.144531 -32.171875 24.273438 -30.867188 26.578125 -28.265625 C 28.890625 -25.660156 30.046875 -22.226562 30.046875 -17.96875 L 30.046875 -14.9375 L 8.28125 -14.9375 C 8.375 -11.226562 9.304688 -8.410156 11.078125 -6.484375 C 12.859375 -4.566406 15.363281 -3.609375 18.59375 -3.609375 C 22 -3.609375 25.363281 -4.316406 28.6875 -5.734375 L 28.6875 -1.46875 C 27 -0.738281 25.398438 -0.21875 23.890625 0.09375 C 22.378906 0.414062 20.554688 0.578125 18.421875 0.578125 Z M 17.125 -28.171875 C 14.582031 -28.171875 12.554688 -27.34375 11.046875 -25.6875 C 9.546875 -24.03125 8.660156 -21.742188 8.390625 -18.828125 L 24.90625 -18.828125 C 24.90625 -21.847656 24.234375 -24.160156 22.890625 -25.765625 C 21.546875 -27.367188 19.625 -28.171875 17.125 -28.171875 Z M 17.125 -28.171875 "/></g>
        </g>
    </g>
    <g fill="#D9D9D9" fill-opacity="1">
        <g transform="translate(265.130408, 295.83275)">
            <g><path d="M 9.859375 0 L 5.078125 0 L 5.078125 -44.859375 L 9.859375 -44.859375 Z M 9.859375 0 "/></g>
        </g>
    </g>
    <g fill="#D9D9D9" fill-opacity="1">
        <g transform="translate(280.063138, 295.83275)">
            <g><path d="M 9.859375 0 L 5.078125 0 L 5.078125 -44.859375 L 9.859375 -44.859375 Z M 9.859375 0 "/></g>
        </g>
    </g>
    <g fill="#D9D9D9" fill-opacity="1">
        <g transform="translate(294.995869, 295.83275)">
            <g><path d="M 24.5 0 L 23.5625 -4.5 L 23.328125 -4.5 C 21.742188 -2.519531 20.171875 -1.175781 18.609375 -0.46875 C 17.046875 0.226562 15.09375 0.578125 12.75 0.578125 C 9.613281 0.578125 7.15625 -0.226562 5.375 -1.84375 C 3.59375 -3.457031 2.703125 -5.753906 2.703125 -8.734375 C 2.703125 -15.117188 7.804688 -18.460938 18.015625 -18.765625 L 23.375 -18.9375 L 23.375 -20.90625 C 23.375 -23.382812 22.84375 -25.210938 21.78125 -26.390625 C 20.71875 -27.578125 19.015625 -28.171875 16.671875 -28.171875 C 14.035156 -28.171875 11.054688 -27.363281 7.734375 -25.75 L 6.25 -29.40625 C 7.8125 -30.25 9.519531 -30.910156 11.375 -31.390625 C 13.226562 -31.878906 15.085938 -32.125 16.953125 -32.125 C 20.722656 -32.125 23.515625 -31.285156 25.328125 -29.609375 C 27.140625 -27.941406 28.046875 -25.257812 28.046875 -21.5625 L 28.046875 0 Z M 13.6875 -3.375 C 16.664062 -3.375 19.003906 -4.191406 20.703125 -5.828125 C 22.410156 -7.460938 23.265625 -9.75 23.265625 -12.6875 L 23.265625 -15.546875 L 18.484375 -15.34375 C 14.671875 -15.207031 11.925781 -14.613281 10.25 -13.5625 C 8.570312 -12.519531 7.734375 -10.890625 7.734375 -8.671875 C 7.734375 -6.941406 8.253906 -5.625 9.296875 -4.71875 C 10.347656 -3.820312 11.8125 -3.375 13.6875 -3.375 Z M 13.6875 -3.375 "/></g>
        </g>
    </g>
    <g fill="#D9D9D9" fill-opacity="1">
        <g transform="translate(327.830569, 295.83275)">
            <g><path d="M 19.484375 -32.171875 C 20.890625 -32.171875 22.148438 -32.054688 23.265625 -31.828125 L 22.609375 -27.390625 C 21.296875 -27.679688 20.140625 -27.828125 19.140625 -27.828125 C 16.585938 -27.828125 14.398438 -26.785156 12.578125 -24.703125 C 10.765625 -22.628906 9.859375 -20.046875 9.859375 -16.953125 L 9.859375 0 L 5.078125 0 L 5.078125 -31.59375 L 9.03125 -31.59375 L 9.578125 -25.75 L 9.796875 -25.75 C 10.972656 -27.800781 12.382812 -29.382812 14.03125 -30.5 C 15.6875 -31.613281 17.503906 -32.171875 19.484375 -32.171875 Z M 19.484375 -32.171875 "/></g>
        </g>
    </g>
    <g clip-path="url(#f54b2f0c41)"><path fill="#D9D9D9" d="M 187.417969 68.277344 C 189.457031 68.277344 191.496094 68.398438 193.535156 68.519531 C 206.011719 69.359375 218.25 72.972656 229.40625 78.867188 L 145.429688 78.867188 C 158.265625 71.886719 172.660156 68.277344 187.417969 68.277344 Z M 187.417969 68.277344 " fill-opacity="1" fill-rule="nonzero"/></g><path fill="#D9D9D9" d="M 214.648438 203.429688 L 214.648438 191.277344 L 271.15625 191.277344 C 269.476562 195.488281 267.675781 199.578125 265.394531 203.429688 Z M 214.648438 203.429688 " fill-opacity="1" fill-rule="nonzero"/><path fill="#D9D9D9" d="M 214.648438 187.90625 L 214.648438 175.628906 L 275.714844 175.628906 C 274.875 179.722656 273.914062 183.933594 272.472656 187.90625 Z M 214.648438 187.90625 " fill-opacity="1" fill-rule="nonzero"/><g clip-path="url(#8c9f5ac579)"><path fill="#D9D9D9" d="M 214.648438 160.105469 L 277.273438 160.105469 L 277.273438 172.261719 L 214.648438 172.261719 Z M 214.648438 160.105469 " fill-opacity="1" fill-rule="nonzero"/><path fill="#D9D9D9" d="M 214.648438 172.261719 L 214.648438 160.105469 L 277.394531 160.105469 C 277.273438 164.195312 277.035156 168.289062 276.3125 172.261719 Z M 214.648438 172.261719 " fill-opacity="1" fill-rule="nonzero"/></g>
    <g clip-path="url(#6f72758eb6)"><path fill="#D9D9D9" d="M 214.648438 156.734375 L 214.648438 155.53125 C 214.648438 151.558594 212.972656 147.707031 210.089844 144.578125 L 276.3125 144.578125 C 276.554688 146.386719 276.914062 148.3125 277.035156 150.234375 C 277.273438 152.523438 277.394531 154.6875 277.394531 156.855469 L 214.648438 156.855469 Z M 214.648438 156.734375 " fill-opacity="1" fill-rule="nonzero"/></g><path fill="#D9D9D9" d="M 271.15625 125.5625 L 198.09375 125.5625 L 198.09375 113.289062 L 265.398438 113.289062 C 267.554688 117.261719 269.476562 121.351562 271.15625 125.5625 Z M 271.15625 125.5625 " fill-opacity="1" fill-rule="nonzero"/><path fill="#D9D9D9" d="M 263.238281 109.917969 L 198.09375 109.917969 L 198.09375 97.761719 L 253.878906 97.761719 C 254 98.003906 254.238281 98.125 254.480469 98.367188 C 257.597656 101.976562 260.597656 105.828125 263.238281 109.917969 Z M 263.238281 109.917969 " fill-opacity="1" fill-rule="nonzero"/><path fill="#D9D9D9" d="M 250.640625 94.394531 L 198.09375 94.394531 L 198.09375 85.730469 C 198.09375 84.40625 197.613281 83.199219 196.894531 82.117188 L 235.164062 82.117188 C 235.765625 82.480469 236.363281 82.839844 236.964844 83.199219 C 241.882812 86.570312 246.441406 90.300781 250.640625 94.394531 Z M 250.640625 94.394531 " fill-opacity="1" fill-rule="nonzero"/><path fill="#D9D9D9" d="M 198.09375 129.898438 L 198.09375 128.933594 L 272.472656 128.933594 C 273.792969 132.785156 274.875 136.996094 275.714844 141.210938 L 206.734375 141.210938 L 200.253906 134.832031 C 198.816406 133.386719 198.09375 131.703125 198.09375 129.898438 Z M 198.09375 129.898438 " fill-opacity="1" fill-rule="nonzero"/><g clip-path="url(#99d6fdd9b7)"><path fill="#D9D9D9" d="M 243.324219 229.304688 C 240.804688 231.351562 237.925781 232.554688 234.925781 233.035156 C 233.246094 233.277344 231.566406 233.277344 229.886719 233.035156 C 223.648438 232.195312 218.371094 228.101562 216.089844 222.445312 L 250.878906 222.445312 C 248.480469 224.851562 245.960938 227.140625 243.324219 229.304688 Z M 243.324219 229.304688 " fill-opacity="1" fill-rule="nonzero"/></g><path fill="#D9D9D9" d="M 254.71875 218.476562 C 254.597656 218.714844 254.359375 218.835938 254.238281 219.078125 L 215.128906 219.078125 C 214.890625 217.992188 214.769531 216.789062 214.769531 215.585938 L 214.769531 206.921875 L 263.476562 206.921875 C 260.835938 210.894531 257.957031 214.863281 254.71875 218.476562 Z M 254.71875 218.476562 " fill-opacity="1" fill-rule="nonzero"/><path fill="#D9D9D9" d="M 160.183594 203.429688 L 160.183594 191.277344 L 103.5625 191.277344 C 105.242188 195.488281 107.039062 199.578125 109.320312 203.429688 Z M 160.183594 203.429688 " fill-opacity="1" fill-rule="nonzero"/><path fill="#D9D9D9" d="M 160.183594 187.90625 L 160.183594 175.628906 L 99.121094 175.628906 C 99.960938 179.722656 100.921875 183.933594 102.359375 187.90625 Z M 160.183594 187.90625 " fill-opacity="1" fill-rule="nonzero"/><g clip-path="url(#010ab354ea)"><path fill="#D9D9D9" d="M 97.441406 160.105469 L 160.066406 160.105469 L 160.066406 172.261719 L 97.441406 172.261719 Z M 97.441406 160.105469 " fill-opacity="1" fill-rule="nonzero"/><path fill="#D9D9D9" d="M 160.183594 172.261719 L 160.183594 160.105469 L 97.441406 160.105469 C 97.5625 164.195312 97.800781 168.289062 98.523438 172.261719 Z M 160.183594 172.261719 " fill-opacity="1" fill-rule="nonzero"/></g>
    <g clip-path="url(#9cfa268ee7)"><path fill="#D9D9D9" d="M 160.183594 156.734375 L 160.183594 155.53125 C 160.183594 151.558594 161.863281 147.707031 164.742188 144.578125 L 98.523438 144.578125 C 98.28125 146.386719 97.921875 148.3125 97.800781 150.234375 C 97.5625 152.523438 97.441406 154.6875 97.441406 156.855469 L 160.183594 156.855469 Z M 160.183594 156.734375 " fill-opacity="1" fill-rule="nonzero"/></g><path fill="#D9D9D9" d="M 103.679688 125.5625 L 176.742188 125.5625 L 176.742188 113.289062 L 109.558594 113.289062 C 107.28125 117.261719 105.359375 121.351562 103.679688 125.5625 Z M 103.679688 125.5625 " fill-opacity="1" fill-rule="nonzero"/><path fill="#D9D9D9" d="M 111.597656 109.917969 L 176.742188 109.917969 L 176.742188 97.761719 L 120.957031 97.761719 C 120.835938 98.003906 120.597656 98.125 120.355469 98.367188 C 117.238281 101.976562 114.238281 105.828125 111.597656 109.917969 Z M 111.597656 109.917969 " fill-opacity="1" fill-rule="nonzero"/><path fill="#D9D9D9" d="M 124.195312 94.394531 L 176.742188 94.394531 L 176.742188 85.730469 C 176.742188 84.40625 177.21875 83.199219 177.941406 82.117188 L 139.671875 82.117188 C 139.070312 82.480469 138.472656 82.839844 137.871094 83.199219 C 132.953125 86.570312 128.394531 90.300781 124.195312 94.394531 Z M 124.195312 94.394531 " fill-opacity="1" fill-rule="nonzero"/><path fill="#D9D9D9" d="M 176.742188 129.898438 L 176.742188 128.933594 L 102.359375 128.933594 C 101.042969 132.785156 99.960938 136.996094 99.121094 141.210938 L 168.101562 141.210938 L 174.582031 134.832031 C 176.019531 133.386719 176.742188 131.703125 176.742188 129.898438 Z M 176.742188 129.898438 " fill-opacity="1" fill-rule="nonzero"/><g clip-path="url(#e173f023af)"><path fill="#D9D9D9" d="M 131.511719 229.304688 C 134.03125 231.351562 136.910156 232.554688 139.910156 233.035156 C 141.589844 233.277344 143.269531 233.277344 144.949219 233.035156 C 151.1875 232.195312 156.464844 228.101562 158.746094 222.445312 L 123.957031 222.445312 C 126.355469 224.851562 128.875 227.140625 131.511719 229.304688 Z M 131.511719 229.304688 " fill-opacity="1" fill-rule="nonzero"/></g><path fill="#D9D9D9" d="M 120.117188 218.476562 C 120.234375 218.714844 120.476562 218.835938 120.597656 219.078125 L 159.707031 219.078125 C 159.945312 217.992188 160.066406 216.789062 160.066406 215.585938 L 160.066406 206.921875 L 111.359375 206.921875 C 113.996094 210.894531 116.878906 214.863281 120.117188 218.476562 Z M 120.117188 218.476562 " fill-opacity="1" fill-rule="nonzero"/></svg>
