<?xml version="1.0" encoding="UTF-8" standalone="no"?>
<!DOCTYPE svg PUBLIC "-//W3C//DTD SVG 1.1//EN" "http://www.w3.org/Graphics/SVG/1.1/DTD/svg11.dtd">
<svg width="35" height="35" viewBox="0 0 75 23" version="1.1" xmlns="http://www.w3.org/2000/svg" xmlns:xlink="http://www.w3.org/1999/xlink" xml:space="preserve" xmlns:serif="http://www.serif.com/" style="fill-rule:evenodd;clip-rule:evenodd;stroke-linejoin:round;stroke-miterlimit:2;">
    <g transform="matrix(4.16667,0,0,4.16667,74.7,8.775)">
        <path d="M0,1.29L0,-0C0,-0.301 -0.289,-0.538 -0.658,-0.538L-2.9,-0.538L-2.9,1.828L-0.658,1.828C-0.289,1.828 0,1.592 0,1.29M-3.148,-0.538L-4.24,-0.538C-4.589,-1.463 -5.472,-2.106 -6.472,-2.106L-16.936,-2.106C-17.482,-2.106 -17.928,-1.662 -17.928,-1.114L-17.928,2.404C-17.928,2.952 -17.482,3.396 -16.936,3.396L-6.472,3.396C-5.472,3.396 -4.589,2.753 -4.24,1.828L-3.148,1.828L-3.148,-0.538ZM-5.024,1.264C-5.291,1.919 -5.893,2.378 -6.594,2.459C-6.713,2.474 -6.821,2.388 -6.834,2.27C-6.835,2.261 -6.836,2.252 -6.836,2.244C-6.836,2.136 -6.755,2.042 -6.645,2.03C-6.099,1.966 -5.632,1.61 -5.425,1.101C-5.38,0.99 -5.253,0.936 -5.143,0.982C-5.032,1.027 -4.978,1.153 -5.024,1.264" style="fill:rgb(35,31,32);fill-rule:nonzero;"/>
    </g>
</svg>
